# xmcd
#
# Track frame offsets:
#	150
#	19008
#	34407
#	59231
#	80933
#	100040
#	118469
#	139510
#	157200
#	175877
#	198391
#	215480
#	234138
#	254863
#	270741
#	288665
#	315868
#	339914
#
# Disc length: 4799 seconds
#
# Revision: 12
# Processed by: cddbd v1.5.2PL0 Copyright (c) Steve Scherf et al.
# Submitted via: EasyCDDAExtractor 15.3.0.1
#
DISCID=1712bd12
DTITLE=Celine Dion - The Essential Celine Dion - CD 2
DYEAR=2011
DGENRE=Pop
TTITLE0=River Deep, Mountain High
TTITLE1=One Heart
TTITLE2=I'm Your Angel (Duet With R. Kelly)
TTITLE3=Only One Road
TTITLE4=Pour Que Tu M'aimes Encore
TTITLE5=You and I
TTITLE6=To Love You More
TTITLE7=Eyes On Me
TTITLE8=Have You Ever Been In Love
TTITLE9=The Reason
TTITLE10=Seduces Me
TTITLE11=The First Time Ever I Saw Your Face
TTITLE12=Dance With My Father
TTITLE13=Misled
TTITLE14=Love Can Move Mountains
TTITLE15=Call The Man
TTITLE16=Goodbye's (The Saddest Word)
TTITLE17=The Prayer (Duet With Andrea Bocelli)
EXTD=
EXTT0=
EXTT1=
EXTT2=
EXTT3=
EXTT4=
EXTT5=
EXTT6=
EXTT7=
EXTT8=
EXTT9=
EXTT10=
EXTT11=
EXTT12=
EXTT13=
EXTT14=
EXTT15=
EXTT16=
EXTT17=
PLAYORDER=
